<svg width="100%" height="100%" viewBox="0 0 21 20" fill="none" xmlns="http://www.w3.org/2000/svg">
<path d="M10.0282 0C8.71497 0 7.41461 0.258658 6.20135 0.761205C4.9881 1.26375 3.8857 2.00035 2.95712 2.92893C1.08175 4.8043 0.0281864 7.34784 0.0281864 10C0.0194442 12.3091 0.818979 14.5485 2.28819 16.33L0.288186 18.33C0.149429 18.4706 0.0554325 18.6492 0.0180584 18.8432C-0.0193158 19.0372 0.0016069 19.2379 0.0781863 19.42C0.161244 19.5999 0.29589 19.7511 0.465033 19.8544C0.634176 19.9577 0.830187 20.0083 1.02819 20H10.0282C12.6804 20 15.2239 18.9464 17.0993 17.0711C18.9746 15.1957 20.0282 12.6522 20.0282 10C20.0282 7.34784 18.9746 4.8043 17.0993 2.92893C15.2239 1.05357 12.6804 0 10.0282 0ZM10.0282 18H3.43819L4.36819 17.07C4.55444 16.8826 4.65898 16.6292 4.65898 16.365C4.65898 16.1008 4.55444 15.8474 4.36819 15.66C3.05877 14.352 2.24336 12.6305 2.06088 10.7888C1.87839 8.94705 2.34013 7.09901 3.36741 5.55952C4.3947 4.02004 5.92398 2.88436 7.6947 2.34597C9.46543 1.80759 11.368 1.8998 13.0784 2.60691C14.7888 3.31402 16.201 4.59227 17.0746 6.22389C17.9482 7.85551 18.2291 9.73954 17.8693 11.555C17.5096 13.3705 16.5315 15.005 15.1017 16.1802C13.672 17.3554 11.8789 17.9985 10.0282 18Z" fill="#008CD9"/>
</svg>
