<svg width="100%" height="100%" viewBox="0 0 18 22" fill="none" xmlns="http://www.w3.org/2000/svg">
<path d="M17.4599 8.63031C17.3195 7.16922 16.8031 5.76939 15.9611 4.56713C15.119 3.36486 13.98 2.40114 12.6549 1.7698C11.3298 1.13846 9.86376 0.861029 8.3996 0.964512C6.93543 1.068 5.52301 1.54887 4.29988 2.36031C3.24908 3.06295 2.36693 3.98961 1.71682 5.0737C1.06672 6.15779 0.664776 7.37241 0.539881 8.63031C0.417363 9.87997 0.574555 11.1412 1.00005 12.3226C1.42555 13.5039 2.10868 14.5758 2.99988 15.4603L8.29988 20.7703C8.39284 20.864 8.50344 20.9384 8.6253 20.9892C8.74716 21.04 8.87787 21.0661 9.00988 21.0661C9.14189 21.0661 9.2726 21.04 9.39446 20.9892C9.51632 20.9384 9.62692 20.864 9.71988 20.7703L14.9999 15.4603C15.8911 14.5758 16.5742 13.5039 16.9997 12.3226C17.4252 11.1412 17.5824 9.87997 17.4599 8.63031ZM13.5999 14.0503L8.99988 18.6503L4.39988 14.0503C3.72197 13.3724 3.20268 12.5526 2.87935 11.6501C2.55601 10.7475 2.43667 9.7845 2.52988 8.83031C2.6237 7.86141 2.93164 6.92547 3.43145 6.09015C3.93126 5.25483 4.61044 4.54102 5.41988 4.00031C6.48083 3.29554 7.72619 2.9196 8.99988 2.9196C10.2736 2.9196 11.5189 3.29554 12.5799 4.00031C13.3869 4.53893 14.0646 5.24959 14.5642 6.08125C15.0639 6.9129 15.3732 7.84491 15.4699 8.81031C15.5661 9.76774 15.4483 10.7346 15.1249 11.6409C14.8014 12.5471 14.2805 13.3701 13.5999 14.0503ZM8.99988 5.00031C8.10986 5.00031 7.23984 5.26423 6.49982 5.7587C5.75979 6.25316 5.18302 6.95597 4.84242 7.77823C4.50183 8.6005 4.41271 9.5053 4.58635 10.3782C4.75998 11.2511 5.18856 12.053 5.8179 12.6823C6.44724 13.3116 7.24906 13.7402 8.12197 13.9138C8.99489 14.0875 9.89969 13.9984 10.722 13.6578C11.5442 13.3172 12.247 12.7404 12.7415 12.0004C13.236 11.2604 13.4999 10.3903 13.4999 9.50031C13.4972 8.30765 13.0223 7.16459 12.1789 6.32125C11.3356 5.4779 10.1925 5.00295 8.99988 5.00031ZM8.99988 12.0003C8.50543 12.0003 8.02208 11.8537 7.61096 11.579C7.19983 11.3043 6.8794 10.9138 6.69018 10.457C6.50096 10.0002 6.45145 9.49754 6.54792 9.01258C6.64438 8.52763 6.88248 8.08217 7.23211 7.73254C7.58175 7.38291 8.0272 7.14481 8.51215 7.04835C8.99711 6.95188 9.49977 7.00139 9.95659 7.19061C10.4134 7.37983 10.8039 7.70026 11.0786 8.11138C11.3533 8.52251 11.4999 9.00586 11.4999 9.50031C11.4999 10.1634 11.2365 10.7992 10.7676 11.2681C10.2988 11.7369 9.66292 12.0003 8.99988 12.0003Z" fill="black"/>
</svg>
